<mxfile host="app.diagrams.net" modified="2024-05-20T19:00:08.550Z" agent="Mozilla/5.0 (Windows NT 10.0; Win64; x64) AppleWebKit/537.36 (KHTML, like Gecko) Chrome/124.0.0.0 Safari/537.36 Edg/124.0.0.0" version="24.4.4" etag="oUOSC1YpC2zKM1SZHMM_" type="github">
  <diagram name="Page-1" id="tVlb1hCqaPR-rbHtqW7a">
    <mxGraphModel>
      <root>
        <mxCell id="0" />
        <mxCell id="1" parent="0" />
      </root>
    </mxGraphModel>
  </diagram>
</mxfile>
